<svg xmlns="http://www.w3.org/2000/svg" viewBox="0 0 200.1 166"><defs><style>.cls-1{fill:#a9456d;}.cls-2{fill:#df9e83;}.cls-3{fill:#f38da8;}.cls-4{fill:#d72c84;}.cls-5{fill:#c1b09e;}.cls-6{fill:#99ac9d;}.cls-7{fill:#1fa3a6;}.cls-8{fill:#1d6a81;}.cls-9{fill:#ffd05b;}.cls-10{fill:#f37c20;}.cls-11{fill:#d6de23;}</style></defs><title>Asset 16</title><g id="Layer_2" data-name="Layer 2"><g id="Layer_1-2" data-name="Layer 1"><path class="cls-1" d="M8.21,112.46c6.58,18.92,20.63,34,37.08,42.82s35.16,11.65,53.39,10.47c5.49-.36,11.08-1.1,16-3.74s9.17-7.2,14-10.47c9.4-6.4,21.47-8,29.22-16.75C163.63,128.36,166,119.13,171,112c5.61-8,14.18-12.82,20-20.63,10.79-14.51,9.73-35.44,8.1-54.17-.33-3.78-.71-7.72-2.59-10.89-3.66-6.13-11.28-7-17.22-10.3-3.76-2.07-7-5.24-10.94-6.89-3.45-1.46-7.21-1.66-10.9-1.84L12,.07C7.74-.14,2.84-.08,0,3.47Q0,35.15,0,66.84c0,16.09.18,32.93,7,47.11"/><path class="cls-2" d="M135.26,102.37c-.33,0-.42,0-.22.08s0,.33-.74.61c-1.66.7-3.15.3-5.42-1.41s-3-2.44-3-2.94a1.28,1.28,0,0,0-.47-.67c-.46-.31-1.06-2.62-1.1-4.19a10.27,10.27,0,0,1,1.18-4.73,15.1,15.1,0,0,1,3.41-3.35c.94-.55,3.64-1.39,3.85-1.19a9.34,9.34,0,0,1,3.33,0c.72.22,1.38.32,1.46.21a13.36,13.36,0,0,0-.16-2.47c-.3-2.45-.27-2.87.46-3,.31,0,.44-.11.28-.32s-.17-.21.13-.06a1.86,1.86,0,0,0,1.25,0c1.34-.33,1.72.08,1.94,2.31,0,.51.48,4,1,7.81,1,9.47,1.41,9.36.37,12.09-.24.64-.23.68-.87.4a22,22,0,0,1-2.58-1.94c-.28.31-1.09,1.81-1.47,1.4-.26-.19-.29-.14-.26.13C137.62,101.72,136,102.5,135.26,102.37Zm-5.32-11.9c-.1,0-.25.17-.35.46a5.48,5.48,0,0,0-.57,4.19c.27,1.86.34,2.08,1.1,2.9,1.37,1.51,1.95,1.71,4.26,1.38,1.59-.22,2.07-.38,2.39-.75a1.27,1.27,0,0,1,.76-.48c.75,0,1.05-1.11.86-3.44-.44-5.11-.45-5.16-1.28-5.78a4.1,4.1,0,0,0-1.48-.71c-1.37-.23-2.34-.18-2.3.09s-.47-.07-.51.3c-.07.15-.42.29-.74.34C131.48,89,130.29,90.33,129.94,90.47Z"/><path class="cls-3" d="M107.84,87a3.6,3.6,0,0,0,.41,1c.31.55.31.55.8.11.69-.65.42,0,1-.64a5.61,5.61,0,0,1,1.26-.87,17.36,17.36,0,0,1,6.17-1.15A2.1,2.1,0,0,1,119,87c.12.49.53-.21.57.38a1,1,0,0,0,.32.65c.77.59,1.52,3.9,1.9,8.55.46,5.9.42,7.93,0,7.94a3.38,3.38,0,0,1-2.53-.52c-.89-.75-1.6-.56-2-1.56,0-.74-1.09-1.55-.7-2.35a19.46,19.46,0,0,0,.33-5.86,5.28,5.28,0,0,1,0-2.08.38.38,0,0,0,.22-.35c0-.14-.12-.22-.24-.11s-.26-.19-.42-.68c-.55-1.63-.6-1.62-1.78-1.46a4.19,4.19,0,0,0-3,2.27c-.14,1-1.46.49-2.19.54-.42,0-.4.11-.3,1.15a57.36,57.36,0,0,1,.38,12.83c-.16.21-2.85-.89-3.23-1.3a2.09,2.09,0,0,0-1.23-.52c-1.22.22-.67-1.15-.67-1.8a44.45,44.45,0,0,0-.42-8.25c-.72-4.1-.82-5.47-.41-6.17a3.39,3.39,0,0,1,2.14-1.55C106.57,86.51,107.63,85.81,107.84,87Z"/><path class="cls-4" d="M94,88.65a7.38,7.38,0,0,1,1.87,2.78.61.61,0,0,0,.35.51c.52.11,1.62,3.6,2.3,7.47a40.68,40.68,0,0,0,.87,4.18,2.65,2.65,0,0,0,1.16.71c1.16.39,1.34,1,.8,2.38-.28.69-.49.85-.65.65s-.31-.19-.45.11c-.14.66-1.23-.25-1.44-.08s-2.26-1.25-2.62-.92a18.9,18.9,0,0,1-3.06.89c-.46.07-.81.21-.75.29.67.79-5.34,1.45-6.77.77a9.34,9.34,0,0,0-1.92-.51,5.73,5.73,0,0,1-3-1.29c-.66-.46-.79-.67-.91-1.9-.26-2.18-.14-2.62.81-3.4,1.85-1.64,3.23-2,5.13-2.93a18.25,18.25,0,0,1,2.93-1.16,28.33,28.33,0,0,1,3.92-.69c-.08-.59-.19-1.68-.48-1.78s-.26-.19-.19-.34a11.32,11.32,0,0,0-1-2.54,6.34,6.34,0,0,0-2.49,1c-.66.6-1.13.21-1.68,1.21a2.61,2.61,0,0,1-3.27,1,3.35,3.35,0,0,0-1.15-.3c-.73.1-.46-.58.89-2.16a13.54,13.54,0,0,1,5.33-3.79c.89-.22,1.1-.71,1.89-.68a7.08,7.08,0,0,0,2,0C93.06,88,93.61,88.57,94,88.65Zm-.19,14.71c.21-.49-.29-1.44-.44-2.16-.16-.48-.34-.78-.46-.67a.17.17,0,0,1-.29,0c-.2-.44-2.88-.15-3.82.4-.47.25-1.21.58-1.64.78-1,.43-1.79,1.45-1.52,2.06S88.13,105.08,89,105C90.2,104.75,92.72,103.56,93.84,103.36Z"/><path class="cls-5" d="M71.27,109.11c-.6-.28-.7-.4-.66-1.1-.39-5.35-1.38-15.37-2.38-20.45-.23-1,.14-1.31,2-1.85,2.17-.63,2.31-.6,2.86.66.75,1.74,3.54,22.17,3.13,22.92a21.7,21.7,0,0,0-.63,2.4C74.61,111.55,72.24,109.76,71.27,109.11Z"/><path class="cls-6" d="M124.84,59c.52,1.24.09,1,.46,3.08,1.13,10.09,1.31,14.16.69,14.91-.25.29-2.3-.58-2.63-1.1a9.16,9.16,0,0,0-2.1-1.51l-.64-7.15c-.58-6.93-.6-7.11-.18-7.6s2-.78,2.57-1.06a1.6,1.6,0,0,1,.81-.21C124.36,58.27,124.56,58.39,124.84,59Zm-.32-3c-.23.48-.91.67-.94.26,0-.13-.21-.25-.44-.32-.42-.06-2.72-2.1-3.21-2s-.44-.32.06-.92c.18-.52,2.7-1,3.13-1.34.76-.84,2.51,1.89,1.69,2.47C124.48,54.5,124.8,55.43,124.52,55.92Z"/><path class="cls-5" d="M110,58.78a7.43,7.43,0,0,1,1.87,2.79c0,.27.21.48.35.5.52.11,1.62,3.61,2.3,7.48.39,2.12.74,4,.86,4.17a2.67,2.67,0,0,0,1.17.72c1.16.39,1.34,1,.79,2.38-.27.68-.48.85-.64.64s-.31-.18-.45.11c-.14.67-1.23-.24-1.44-.07s-2.26-1.25-2.63-.92a18.32,18.32,0,0,1-3.06.89c-.45.06-.8.2-.74.29.66.78-5.34,1.44-6.77.77A9.22,9.22,0,0,0,99.66,78a5.63,5.63,0,0,1-3-1.28c-.66-.46-.79-.68-.91-1.91-.26-2.18-.14-2.61.81-3.39,1.85-1.65,3.23-2,5.13-2.94a17.38,17.38,0,0,1,2.93-1.15,26.9,26.9,0,0,1,3.92-.69c-.08-.59-.19-1.68-.48-1.78s-.26-.19-.19-.34a11.32,11.32,0,0,0-1-2.54,6.05,6.05,0,0,0-2.49,1c-.66.6-1.13.2-1.68,1.2a2.62,2.62,0,0,1-3.27,1,3.34,3.34,0,0,0-1.16-.3c-.72.1-.45-.58.9-2.16A13.47,13.47,0,0,1,104.5,59c.89-.22,1.1-.71,1.89-.68a7,7,0,0,0,2,0C109,58.13,109.54,58.7,110,58.78Zm-.19,14.71c.21-.49-.29-1.43-.44-2.15-.16-.49-.34-.78-.47-.68s-.22.08-.28,0c-.2-.43-2.88-.15-3.82.4-.47.25-1.21.59-1.65.79-1,.42-1.78,1.45-1.51,2.06s2.46,1.36,3.32,1.24C106.14,74.88,108.66,73.7,109.78,73.49Z"/><path class="cls-7" d="M92.48,81.79c-.1.29-2.45-1.31-3-1.94a7.38,7.38,0,0,0-1-1c-.2-.16-.32-.33-.25-.52.33-.23-.67-10-1.12-11.2-.12-.49-.44-.17-.51-.67s-.9-.47-1.7-.27a6.26,6.26,0,0,0-2.74,1.22,6.15,6.15,0,0,0-1.79,3c0,1-.24,1.24-.74.94s-.51,1,0,5.44c.46,3.86.45,5.76-.11,6.07-.74,0-2.06-1.19-2.91-1.3a2.45,2.45,0,0,1-1.23-.89c-.91-2.18-1.16-10.18-1.38-13.38,0-.6-.15-1.09-.29-1.07s-.15-.07-.07-.22a39.18,39.18,0,0,0-.41-4.19c-.77-5.48-.28-4.3,2-5.5a2.74,2.74,0,0,1,1.62-.27,3.36,3.36,0,0,1,.7,1.7,59.54,59.54,0,0,0,1.09,7c.1.08.66-.23,1.21-.59,2.18-1.51,5-2.41,6.71-2.19,1.31.19,3.2,1.77,3.35,2.85,0,.32.16.49.29.38.53-.45,2.06,3.82,2.2,6.15,0,.83.76,7.65.47,8.25-.09,0-.15.2-.12.48A4.63,4.63,0,0,1,92.48,81.79Z"/><path class="cls-8" d="M48.15,66.74a.36.36,0,0,0,.32-.37c0-.23,1.14-1.08,1.34-1,0,0,.25-.22.53-.54a1.12,1.12,0,0,1,1.22-.5c0,.23,13.17-.88,15.24-1.59,1.59-.54,2.51-.21,2.63.65,0,.31.17.53.31.51.4-.06.74,1.37.43,1.78s-2.34,1.07-5.53,1.71a9.72,9.72,0,0,0-2.4.66c-.51.35-.44.8.77,9.08.79,5.29,1,6.14,1.29,6.51a7.15,7.15,0,0,1,.34,3.09c-.06.57-1.11.95-1.24,1.38s-.88.31-1,.64-.79,0-.94.51c-.11.24-.62.5-1.43.7-1.2.31-1.21.27-1.39-.35-.46-1.65-1.06-6.6-.84-7,.61-.64-.92-.33-.27-1,.4-.75-.58-.52-.38-1.38.11-1.53-1-11.07-1.32-11.31,0,0-1.87.17-4,.43-4.5.5-5.24.47-5.38-.49C46.12,67.72,47.37,67.08,48.15,66.74Z"/><path class="cls-9" d="M82.09,47.14a6.6,6.6,0,0,1-3.52,1c-1.88.23-2.22.22-2.58-.21a1.42,1.42,0,0,1-.3-1c.33-3,.14-7.68.82-11a41.85,41.85,0,0,0,.57-4.29,5.19,5.19,0,0,1,.25-1.67,13.82,13.82,0,0,1,4-2.07.93.93,0,0,1,.93.22c.35.65,2-.15,2.48-.09,1.28-.22,3.85-.65,4.9-.76a19.42,19.42,0,0,1,5.11.61,4.44,4.44,0,0,1,3.44,3.5A4.61,4.61,0,0,1,98.41,33c-.08.15,0,.26,0,.26s.14.38,0,.83c-.2,1.19-1,3.22-1.28,3.21s-2.8,1.66-3,1.62a5.19,5.19,0,0,0-1.17.33,3.84,3.84,0,0,0,1.45,1.25c.81.41.36.54,1.12,1a14.2,14.2,0,0,1,4,4.27c.87,1.94.48,2.34-2,2.44a9.07,9.07,0,0,0-2,.22c-.53.28-1.37-.35-2.26-1.65a8.08,8.08,0,0,0-1.84-2c-.62-.62-.55-.24-1.17-.9A24.83,24.83,0,0,0,87,41.66a2.77,2.77,0,0,1-1.22-1.55c-1.3-.08-2.54-.06-3.74,0C81.87,43.08,82.37,43.7,82.09,47.14Zm4-16.62c-.16.22-1.08-.41-1.13,0s-1.93.41-2.08.6a26.36,26.36,0,0,1-.85,5.7c-.08.07,0,.3,0,.49s.25.35.64.1,3-.49,5.68-.46A5.36,5.36,0,0,0,91,36.59c.8-.34.92-.49,1.29-1.53.55-1.59.43-2.42-.51-3.28a4.82,4.82,0,0,0-.88-.67C90,31,87.18,30.3,86.09,30.52Z"/><path class="cls-3" d="M68.93,35c-2.05-.07-2.17-.24-2.71-.92a4.15,4.15,0,0,0-2.49-1.67,11.3,11.3,0,0,1-1.45-.47,2.74,2.74,0,0,0-2.44.44c-.11.18-.18.2-.2.12s-1.53,1.2-1.8,1.72c-.33.73-.4,2.44-.64,3.26a13.73,13.73,0,0,0,.19,5,8,8,0,0,0,3.68,4.35c1.76.82,3.93,1.06,4.88.5s.93-.64,1.4-2.13c.34-1.19.82-1.95,1.31-2.14a7.51,7.51,0,0,0,1.54-.85c1.44-1.1,1.64,2.81,1.44,3.44a6,6,0,0,1-2.67,4,9.49,9.49,0,0,1-2.39,1.12,20.12,20.12,0,0,1-4.45,0l-2-.36a7.72,7.72,0,0,1-5-2.94c-1.12-1.36-1.59-2.44-2.32-5.12a15.71,15.71,0,0,1-.08-6.4c.49-2.41-.29-1.81,1.65-3.91a17.31,17.31,0,0,1,4.24-3c1.62-1,4.7-1.31,6-.6a.8.8,0,0,0,.49.16,9,9,0,0,1,2.27,1A7.9,7.9,0,0,1,70.6,33.5C71.27,35.27,69.94,35,68.93,35Z"/><path class="cls-10" d="M37,64a1.37,1.37,0,0,1,.06.76c-.1.42-.22.43-1.57-.1-1.73-.69-1.63-.57-3-4.21-1.09-3-5.35-12.09-5.9-12.66-.81-.5-.2-1.52.16-1.81.55-.42.51-.77,1.25-1.32,1.22-1,1.37-1,2-.35.93.94,1,1.22,1.92,2.21.36.33.62.62.55.66s.07.13.3.19c.53.17,1.13,1.21,1.59,1.58a6.28,6.28,0,0,1,1.64,1.76c.28.36,1.17.58,1.53,1.19.66.9,2.35,2.06,2.44,2.35a7.29,7.29,0,0,0,2.18,1.88c.11-.05.09-.54,0-1.08-.2-1.14,0-4.69-.12-5.8-.2-1.8,0-3.82-.23-5.62a18.76,18.76,0,0,1,.16-4.69c.21-.52,1.6-1.44,1.9-1.25a.7.7,0,0,0,.66-.18c.32-.27.46-.25.93.07a1.16,1.16,0,0,1,.65,1.14c-.13.52,6,13.76,7.57,17.1-.05.52-.27,2.81-1.05,1.84-.27-.41-.5,0-.72-.41a.5.5,0,0,0-.41-.26c-.44-.05-1.31-.6-1.23-.8s-5.13-12.32-5.31-12.07c-.23,4.51,0,2.38,0,8.7.1,1.56.5,5.13.38,6.3,0,.35-.72.66-.59,1a.5.5,0,0,1-.11.47c-.7.81-4.4-1.24-5.43-2.66a20.29,20.29,0,0,0-2.16-2.19,1.41,1.41,0,0,1-.53-.53c0-.26-1.6-1.33-1.65-1.52S33,52.22,33,52s-.21-.27-.31-.23.17.75.57,1.51,2.57,6.33,3.79,9.52C37.28,63.16,36.85,63.57,37,64Z"/><path class="cls-11" d="M56.87,112.31c.35,0,1.22-.4,1.71-.21a1.37,1.37,0,0,0,.6,0,8.7,8.7,0,0,1,2.68,1.08c.87.4,1.57,2.83,1.67,3.76.09,1.57-1.14,4.94-1.57,4.23-.07-.08-.05,0,0,.06,0,.27-.71.75-.87.54s-.17,0-.19.17c-.25.4-1.22.32-1.54.74-.22.19-.45.31-.54.28-.7.11-2.43,1.11-3.17,1.33a4.66,4.66,0,0,0-1.83,1c0,.14.66.36,2.47.85,2.66.82,2.6.61,3,1.54a4.2,4.2,0,0,0,.09.86c.16,1-.06,1.14-1.82.79a10.38,10.38,0,0,0-1.72-.24.61.61,0,0,1-.53-.16c-.19-.22-1.45-.61-1.49-.46a20,20,0,0,1-2.58-.7c-2.13-.69-2.57-.83-2.85-1.17s-.37-.47.31-1.09a9.58,9.58,0,0,1,2.2-1.73,10.12,10.12,0,0,1,2.28-1.25c.75-.25,2.21-1.15,2.92-1.35L57,121c1-.28,1.27-.58,1.71-1.89a3.42,3.42,0,0,0,.22-2,2,2,0,0,0-1.33-1.92c-.78-.4-.78-.4-1.51,0a3.4,3.4,0,0,0-1.13,1c-.42.64-.6.71-1.94.91a3.9,3.9,0,0,0-1,.32c-.38.17-.48.18-.77-.11s-.34-.36,0-1.11a5.32,5.32,0,0,1,2.25-2.39,1.86,1.86,0,0,0,.7-.52c0-.12.12-.19.18-.17C54.48,113.4,56.37,112.38,56.87,112.31Z"/><path class="cls-11" d="M71.94,132.68a6.35,6.35,0,0,1-1.29.2c-1,.13-1.68-.67-2.33-.88-.3-.1-1.15-1.16-1.45-1.26a15.56,15.56,0,0,1-1.56-2.09,13.49,13.49,0,0,1-.76-2c-.22-.46-.22-1.2.16-3s1.41-3.53,2.2-5.16a9,9,0,0,1,2.81-2c.26,0,.48-.07.49-.16s.62,0,.77-.21a4.51,4.51,0,0,1,2.9.28c.84.44,1,.34,1.69,1.26a8.46,8.46,0,0,1,1.76,3.22,5.19,5.19,0,0,1,.33,2.76,16.08,16.08,0,0,1-1.81,5.25,6.36,6.36,0,0,0-.51,1.08c0,.27-1,1.17-1,1.48s-.68.25-.69.56a.25.25,0,0,1-.3.18C73,132.13,72.3,132.75,71.94,132.68Zm.24-14.53a4.37,4.37,0,0,0-2,.83c-.07.08-.16.07-.15,0,0-.25-1,1.29-1.77,2.56a8.09,8.09,0,0,0-.83,4.81,2,2,0,0,1,.16.73,6.38,6.38,0,0,0,1.14,2.15c.84,1.19,2.71,1.61,3.61.83a4.42,4.42,0,0,0,1.51-2.16,3.25,3.25,0,0,1,.57-1.07,7,7,0,0,0,.65-3A10.1,10.1,0,0,0,74,120.2C73.13,118.92,72.94,118.24,72.18,118.15Z"/><path class="cls-11" d="M84.09,118.16c.33-.1,1-.77,1.53-.76a1.25,1.25,0,0,0,.58-.18,8.55,8.55,0,0,1,2.89.14c1,.09,2.41,2.15,2.81,3,.61,1.45.55,5-.08,4.51-.09-.06-.06,0,0,.06s-.42.94-.64.79-.15.07-.12.22c-.1.47-1,.71-1.21,1.21-.14.25-.32.44-.41.45-.64.33-1.93,1.85-2.56,2.3-.83.74-1.36,1.34-1.38,1.59s.74.12,2.61,0c2.79-.1,2.66-.28,3.36.46a4.32,4.32,0,0,0,.37.78c.49.94.31,1.1-1.46,1.35a10,10,0,0,0-1.7.34.62.62,0,0,1-.56,0c-.25-.15-1.56-.1-1.56,0a16.42,16.42,0,0,1-2.66.2c-2.24,0-2.7.06-3.08-.17s-.5-.32-.07-1.13A10.17,10.17,0,0,1,82.26,131,10.28,10.28,0,0,1,84,129.09c.63-.49,1.71-1.82,2.31-2.24.12-.09.48-.32.78-.55.83-.58,1-1,1-2.33a3.3,3.3,0,0,0-.44-2c-.56-1-.9-1.26-1.89-1.37s-.86-.13-1.42.51a3.37,3.37,0,0,0-.72,1.34c-.19.75-.33.88-1.54,1.5a4.11,4.11,0,0,0-.86.65c-.3.29-.39.32-.77.15s-.43-.23-.34-1.06a5.33,5.33,0,0,1,1.33-3c.26-.28.5-.6.49-.72s.06-.22.12-.22C82.19,120,83.63,118.39,84.09,118.16Z"/><path class="cls-11" d="M106.11,131.34c-.45.22-.37.39-1.11.69-.85.49-1.81,0-2.49.08-.31,0-1.51-.64-1.82-.61a15,15,0,0,1-2.24-1.33c-.71-.48-.94-1.11-1.49-1.6-.38-.34-.66-1-1-2.81s-.06-3.8,0-5.61a8.9,8.9,0,0,1,1.85-2.89c.22-.12.41-.24.38-.33,0-.25.57-.25.63-.49a4.59,4.59,0,0,1,2.79-.86,3.19,3.19,0,0,1,2,.52,8.44,8.44,0,0,1,2.85,2.3,5.16,5.16,0,0,1,1.37,2.43,16.2,16.2,0,0,1,.34,5.53,6.55,6.55,0,0,0-.06,1.19c.07.27-.46,1.47-.35,1.75s-.53.5-.42.79c0,.11-.06.24-.21.28C106.88,130.43,106.48,131.28,106.11,131.34Zm-5.35-13.5c-.23,0-1.43,1.18-1.52,1.52,0,.11-.13.13-.15,0a10.82,10.82,0,0,0-.66,3,8.15,8.15,0,0,0,1.08,4.76,1.78,1.78,0,0,1,.42.61,6.62,6.62,0,0,0,1.89,1.55c1.23.78,3.11.45,3.65-.62a4.36,4.36,0,0,0,.56-2.57,3.24,3.24,0,0,1,.12-1.21,6.85,6.85,0,0,0-.53-3,10.06,10.06,0,0,0-2.4-3C101.93,118.18,101.5,117.63,100.76,117.84Z"/><path d="M25.56,119.66c-.07-.08-.14-.14-.17-.14s-.75.6-.94.77A1.39,1.39,0,0,1,24,120c-.1,0-.24-.3-.34-.25s-.17-.13-.17-.2.16-.32.94-.84c.47-.3,1.3-1.07,1.8-1.44a4.73,4.73,0,0,1,.58.13A5.33,5.33,0,0,1,28,118a2.44,2.44,0,0,1,.3.21,2.87,2.87,0,0,1,.61.82,1.06,1.06,0,0,1,.06.69s0,0,0,.06a2.36,2.36,0,0,1-.66,1l-.16.07a1.52,1.52,0,0,1-.75.15c-.09,0-.33-.09-.41-.19A15,15,0,0,1,25.56,119.66Zm1.84-1.3c-.11-.06-.27-.34-.39-.28s-.09,0-.1.07a3.62,3.62,0,0,1-.59.56c-.39.34-.46.48-.19.6.05,0,.56.61.6.6s.14.13.34.07a.93.93,0,0,0,.66-.62.67.67,0,0,0-.07-.62C27.55,118.56,27.57,118.49,27.4,118.36Z"/><path d="M29.76,123.06s.46.48.48.46.29.26.29.07.29-.38.34-.32.11,0,.06-.06,0-.09.09-.18c.23-.27.27-.29.47-.26a.77.77,0,0,1,.23.06A.56.56,0,0,0,32,123c.09,0,.14.11.09.24A15.29,15.29,0,0,1,30,125.31c-.76.68-.87.77-.9.69s-.12-.19-.16-.24.14-.12,0-.12-.07,0,0,0a1.21,1.21,0,0,0-.11-.4l.45-.42c.53-.45.74-.71.63-.75s-1-1-1.08-1-.06-.06,0-.08.06,0,0,0-.17-.08-.25-.18l-.5.46a3.73,3.73,0,0,1-.85.67c-.07,0-.19-.17-.24-.33s-.11-.12-.11-.25-.13-.18-.09-.26c.22-.22,1.26-1.21,1.55-1.56a2.33,2.33,0,0,1,.38-.38s0,0,.08-.08a1.56,1.56,0,0,1,.21-.26c.13-.16.17-.19.32-.21a.38.38,0,0,1,.23,0c.09.07.17,0,.25.08s.37.18.42.24-.68,1-1.16,1.4C29.2,122.41,29.59,122.94,29.76,123.06Z"/><path d="M32.58,129a1.17,1.17,0,0,1-.73-.06.1.1,0,0,0-.07,0,2.15,2.15,0,0,1-.75-.68,3.89,3.89,0,0,1-.38-.52c0-.08-.15-.08-.15-.19a.94.94,0,0,0-.13-.3,1,1,0,0,1-.23-.71c0-.37.21-.62,1-1.46.43-.45.74-.8,1.13-1.17a4.51,4.51,0,0,1,.86.21c.06,0,.13,0,.15,0s.14.24,0,.5-.48.54-.58.53-.06,0,0,0,0,.08-.19.29c-.38.36-1.19,1.2-1.21,1.26-.13.27-.2.11,0,.6a1.62,1.62,0,0,0,.46.7.5.5,0,0,0,.58,0c.14-.1.21-.05.35-.2s.12-.11.14-.1,0,0,0,0,.17-.21.21-.17,0,0,0-.07.08-.21.13-.16,0,0,0,0,0-.11.19-.24.5-.6.77-.83.34-.08.55-.09a.89.89,0,0,1,.29.12c.19.12.21.18.1.29s0,.06,0,.07-.07.19-.37.52-.29.32-.35.32-.06,0,0,0,0,.08-.11.16a5.7,5.7,0,0,1-.65.65c-.1.05-.53.46-.64.47a.69.69,0,0,0-.19.12C32.73,129,32.65,128.91,32.58,129Z"/><path d="M37.27,128.78a.67.67,0,0,0,.35,0c.12-.06.12,0,.25,0s.67.27.67.35-.08.15-.19.29-.19.25-.3.27a.48.48,0,0,1-.21,0s-.08,0-.08,0-.06,0-.13,0a3.72,3.72,0,0,0-.8-.05c-.18,0-.33.11-.26.17s0,0,0,0,0,0,0,0,0,.68,0,.88a.31.31,0,0,1,0,.16c0,.13,0,.8,0,1s-.36.34-.4.39-.11,0-.22-.23a1.67,1.67,0,0,1-.24-1.16c0-.35,0-.73,0-.83,0-.36,0-.44-.26-.41s-.17,0-.23-.07-.2-.27-.22-.25a2.46,2.46,0,0,0-.42.43,3,3,0,0,1-.55.55c-.42.34-.47.33-.63,0s-.16-.2-.18-.48,0-.27.1-.27c.68-.61,1.31-1.47,2-2.22l.39-.44c.24.06.69.16.68.21a.24.24,0,0,0,.13.07c.14,0,.21.12.16.23a2.88,2.88,0,0,1-.64.85c-.28.31-.5.56-.49.56C35.71,128.85,37.09,128.75,37.27,128.78Z"/><path d="M38.52,132.28a9.94,9.94,0,0,0-.63.86,20.56,20.56,0,0,0,1.67,1.3.81.81,0,0,1,.25.22c0,.1,0,.11-.12.27a1.56,1.56,0,0,0-.21.23c0,.05-.11,0-.59-.38a2.52,2.52,0,0,1-.51-.44c.07,0-.08-.11-.08,0s-.1,0-.48-.31a3.12,3.12,0,0,0-.51-.36c-.1,0-.23-.17-.3-.37s-.15-.13-.13-.39,0-.22.51-.84a5.64,5.64,0,0,0,.5-.76c0-.11.08,0,.07-.1s0-.12.07-.21a6.85,6.85,0,0,1,.85-1.07c.18-.12.53,0,.79.1s.28.11.75.54a8.28,8.28,0,0,0,.92.67,2.6,2.6,0,0,0,.38.24c.06,0,.1.16.06.24s-.33.5-.37.39a14,14,0,0,1-1.24-1s0-.1,0,0-.12,0-.34-.2-.15-.11-.19-.09a4.56,4.56,0,0,0-.36.41c-.34.43-.41.58-.28.66s1.19.88,1.43,1a1.11,1.11,0,0,1,.31.24,2.06,2.06,0,0,1-.34.55C39.79,133.2,39.1,132.75,38.52,132.28Z"/><path d="M42.51,132.52a.07.07,0,0,0,.09,0s.26,0,.27,0,.06,0,.13,0a.21.21,0,0,1,.21.08,17.38,17.38,0,0,0,2.08,1.57c.26.12.34.26.25.38s0,.09,0,.1-.07.26-.15.28a2.73,2.73,0,0,1-.89-.43,1.77,1.77,0,0,0-.37-.2c-.1,0-.15.05-1,1.22-.51.75-.59.87-.59,1a1.17,1.17,0,0,1-.32.42c-.07.06-.24,0-.31,0s-.14-.07-.19,0-.1-.1-.18,0-.13,0-.26-.08-.18-.11-.13-.2a4.67,4.67,0,0,1,.7-1c.15,0-.08-.15.08-.16s0-.13.11-.21a13,13,0,0,0,1.15-1.56l-.56-.42c-.61-.45-.7-.54-.61-.68S42.38,132.48,42.51,132.52Z"/><path d="M47.81,137.79a2.21,2.21,0,0,1,.32.18c.18.12.2.15.23.28s0,.18-.15.42a1.05,1.05,0,0,1-.26.3.21.21,0,0,0-.09.1c-.08.12-.17,0-.32,0a.59.59,0,0,1-.46-.32,2.25,2.25,0,0,1-.16-.62c0-.16.32-.42.42-.36S47.68,137.72,47.81,137.79Z"/><path d="M52.89,138.49c.08,0,.32-.05.43,0a.37.37,0,0,0,.15,0,2.14,2.14,0,0,1,.62.38c.2.14.28.77.26,1,0,.4-.49,1.19-.57,1,0,0,0,0,0,0s-.21.15-.24.09,0,0-.06,0-.32,0-.41.12a.29.29,0,0,1-.15,0c-.18,0-.65.18-.85.2a1.08,1.08,0,0,0-.5.19s.15.11.58.31c.63.32.63.26.69.52a.93.93,0,0,0,0,.21c0,.27-.07.29-.49.12a3.22,3.22,0,0,0-.42-.13.14.14,0,0,1-.12-.06c0-.06-.34-.21-.36-.18l-.61-.28c-.5-.26-.61-.32-.66-.41s-.07-.14.12-.26a2.3,2.3,0,0,1,.62-.34,2.9,2.9,0,0,1,.62-.22c.2,0,.61-.19.79-.21l.24,0c.26,0,.34-.09.5-.4a.81.81,0,0,0,.14-.48c0-.3,0-.39-.25-.54s-.18-.13-.38-.06a1,1,0,0,0-.32.21c-.13.15-.18.16-.52.15a1.2,1.2,0,0,0-.28,0c-.1,0-.12,0-.18,0s-.07-.11,0-.28a1.39,1.39,0,0,1,.66-.5.5.5,0,0,0,.2-.1s0,0,0,0S52.76,138.49,52.89,138.49Z"/><path d="M54.94,141.79s.05,0,.07-.08a.51.51,0,0,0-.12-.42.53.53,0,0,1-.1-.38s0-.37,0-.43.13-.14.32-.23a1.53,1.53,0,0,1,.72-.23c.25,0,.3-.09.49-.05s.08,0,.17,0a2,2,0,0,1,.5.23.55.55,0,0,0,.11.11c.12.09.25.39.21.47s0,.08,0,.09,0,.4,0,.55a1.46,1.46,0,0,1-.12.37c-.13.27-.13.26-.32.34a.67.67,0,0,1-.23.06s-.27.1-.31.08,0,.2,0,.19a1.37,1.37,0,0,1,.19.61.37.37,0,0,0,0,.19c0,.2,0,.46-.11.46s0,0,0,0-.19.36-.3.4a.68.68,0,0,1-.56.09c-.07,0-.09,0-.06,0s-.19,0-.75-.22a1.44,1.44,0,0,1-.65-.36,4.66,4.66,0,0,1-.41-.56c-.15-.16,0-.8.27-1a1.59,1.59,0,0,1,.49-.21S54.91,141.76,54.94,141.79Zm.68,1c-.06-.13-.27-.44-.47-.35a.58.58,0,0,0-.31.87c.1.19.39.23.63.32.09-.13.29-.33.27-.5S55.69,143,55.62,142.76Zm.13-1.23s0,0,.07.07.07.09.24.07.17,0,.15,0,0,0,0,0,.25-.53.16-.77-.13-.22-.32-.18a.8.8,0,0,0-.26.08.4.4,0,0,0-.16.41A1.26,1.26,0,0,0,55.75,141.53Z"/><path d="M59.54,146.21a.27.27,0,0,1-.1.12c-.07,0-.09,0-.22-.24s-.16-.32.16-1.06a23,23,0,0,0,.92-2.74c0-.19.19-.25.29-.25s.18,0,.37,0,.36,0,.36.23,0,.33,0,.61c0,.1,0,.18,0,.17s0,0,0,.08,0,.34,0,.46a1.33,1.33,0,0,1,0,.5c0,.09.09.25.06.4s.06.64,0,.7a1.58,1.58,0,0,0,.06.59s.09-.07.15-.16.67-.71.82-.89.54-.57.76-.87a3.92,3.92,0,0,1,.7-.68c.1,0,.44,0,.46.08s.06.06.13.07.1,0,.13.14a.26.26,0,0,1-.07.27c-.09.05-1.06,2.92-1.31,3.64-.08.07-.44.38-.42.13,0-.1-.07-.08,0-.17a.12.12,0,0,0,0-.1c-.06-.06-.11-.27-.07-.29a22.93,22.93,0,0,0,.93-2.57c-.68.64-.34.36-1.25,1.31a11.09,11.09,0,0,1-.84,1c0,.06-.2,0-.24.08a.09.09,0,0,1-.08.05c-.22,0-.49-.81-.44-1.17a3.42,3.42,0,0,0,0-.64.43.43,0,0,1,0-.16s0-.42,0-.46-.08-.5-.05-.54,0-.07,0-.08a.86.86,0,0,0-.13.31c0,.16-.52,1.32-.79,2C59.7,146.12,59.57,146.12,59.54,146.21Z"/><path d="M68.18,145.91c0,.2,0,.26-.06.2s-.08.07,0,.07.1.06.15.29a10.72,10.72,0,0,0,.36,1.71c0,.14.06.21,0,.21s-.17.18-.29.16a1.82,1.82,0,0,0-.39.09c-.39.13-.43.11-.5-.33,0-.19-.07-.42-.08-.51s-.08-.11-.07-.34v-.16a11.7,11.7,0,0,1-1.47-.39c-.13-.06-.29,0-.31.09s-.49.66-.64.93a3.51,3.51,0,0,0-.77-.2c-.13,0-.17,0-.21-.08s0-.1,0-.22c.29-.38.48-.65.79-1.05.18-.25.23-.3.28-.26s.08,0,0-.07.33-.61.36-.62.18-.33.27-.4a1.78,1.78,0,0,0,.29-.38c.4-.55.38-.47.88-.55a1.78,1.78,0,0,1,.33,0c.09,0,.06-.07.17,0s.07-.07.16-.1.08-.06.23.07.12.47.23.86a4.32,4.32,0,0,1,.07.53c0,.13,0,.23,0,.22s0,0,0,0A1,1,0,0,0,68.18,145.91Zm-1.31-.73s-.42.49-.5.69a2,2,0,0,1-.2.27c-.1.13-.08.16.14.21s.71.22.83.22a2.78,2.78,0,0,0-.08-.75,2.24,2.24,0,0,1-.1-.55C67,145.22,66.91,145.12,66.87,145.18Z"/><path d="M70.5,149.15a1.41,1.41,0,0,1-.75.09c-.4,0-.46,0-.52-.13a.3.3,0,0,1,0-.21c.16-.59.27-1.56.52-2.22.11-.33.23-.72.26-.86a1.09,1.09,0,0,1,.11-.34,2.93,2.93,0,0,1,.88-.29.2.2,0,0,1,.18.07c0,.15.41,0,.51.07.27,0,.81,0,1,0a4.19,4.19,0,0,1,1,.29.93.93,0,0,1,.59.83.89.89,0,0,1,0,.34s0,.05,0,.05,0,.09,0,.17c-.08.24-.31.63-.37.62s-.63.25-.66.23a1.22,1.22,0,0,0-.26,0,.86.86,0,0,0,.26.31c.15.11.06.12.2.24a3,3,0,0,1,.67,1c.11.43,0,.5-.5.43a2,2,0,0,0-.41,0c-.11,0-.26-.12-.4-.42a1.63,1.63,0,0,0-.32-.45c-.1-.15-.1-.07-.21-.23a4.67,4.67,0,0,0-.6-.57.51.51,0,0,1-.19-.35,7.74,7.74,0,0,0-.77-.13C70.58,148.32,70.67,148.46,70.5,149.15Zm1.36-3.26s-.21-.12-.23,0-.41,0-.45.05a4.94,4.94,0,0,1-.36,1.14.09.09,0,0,0,0,.1c0,.08,0,.08.12.05a4,4,0,0,1,1.18.09,1.23,1.23,0,0,0,.54,0c.17,0,.2-.07.31-.27s.17-.48,0-.69a.9.9,0,0,0-.16-.17A4.4,4.4,0,0,0,71.86,145.89Z"/><path d="M80.21,149.51a21.31,21.31,0,0,1-2.78-.33c-.07-.08.26-.27.48-.28a.74.74,0,0,1,.4-.11,7.59,7.59,0,0,1,1.18.11c.71.09.81.09.76.14s0,.06,0,.06S80.28,149.47,80.21,149.51Z"/><path d="M86.08,147.07c.09.08,0,.22.09.34a8.11,8.11,0,0,1,.08,1.43,1.67,1.67,0,0,0,0,.45c0,.09.74,0,.79,0s.33.05.33.15a3.53,3.53,0,0,0,0,.41c0,.08,0,.08-.16.1h-.52c-.53,0-.51,0-.55.5,0,.25,0,.5,0,.54s0,.09-.17.07a1.93,1.93,0,0,1-.8-.26c-.08-.08-.08-.11-.06-.36s.08-.26,0-.39-.06-.07-.22-.05a6.48,6.48,0,0,1-.9,0,2.68,2.68,0,0,1-.71-.2s0-.07.24-.43c.1-.15.22-.25.27-.22s0,0,0,0a.65.65,0,0,1,.19-.39,9.84,9.84,0,0,0,.59-.91c.07-.15.18-.21.26-.37a1.06,1.06,0,0,1,.37-.36,4.84,4.84,0,0,1,.66-.28S86,147,86.08,147.07Zm-1.33,2.12c-.2.19-.14.27.18.22l.19,0a2.59,2.59,0,0,1,0-.47c0-.09-.14-.08-.22,0S84.91,149.06,84.75,149.19Z"/><path d="M94.14,148.18c.11.18.11.24,0,.21s-.06.09,0,.06.11,0,.22.24a11.7,11.7,0,0,0,.87,1.51c.09.12.12.18.09.2s-.11.22-.23.23a2.27,2.27,0,0,0-.34.21c-.34.25-.38.23-.59-.15l-.23-.48c-.08-.19-.1-.08-.17-.29l0-.16a11.09,11.09,0,0,1-1.52.09c-.14,0-.28.08-.27.17-.08.27-.27.78-.33,1.08a3.3,3.3,0,0,0-.79.06c-.13,0-.16,0-.22,0s-.07-.08,0-.22c.16-.45.26-.77.42-1.24.1-.3.13-.36.19-.34s.07-.05,0-.08.13-.68.15-.69.07-.38.14-.47a3.09,3.09,0,0,0,.16-.45c.21-.65.21-.57.67-.79a1.59,1.59,0,0,1,.3-.13c.1,0,0-.09.15-.09s0-.09.12-.14.06-.09.24,0c.36.15.26.41.49.75a5,5,0,0,1,.23.48c0,.12.08.21.11.19s0,0,0,0A.85.85,0,0,0,94.14,148.18Zm-1.47-.29s-.25.6-.27.81a2.07,2.07,0,0,1-.1.31c-.06.16,0,.18.19.16s.75,0,.86,0a2.66,2.66,0,0,0-.31-.69,2.06,2.06,0,0,1-.26-.49C92.8,147.89,92.69,147.82,92.67,147.89Z"/><path d="M97.29,149.26a.51.51,0,0,0-.2.06,8.78,8.78,0,0,0,.14,1.22,1.82,1.82,0,0,1-.47.22c-.08.07-.38,0-.39.15s-.2.07-.26,0-.18-.31-.19-1.25c0-.55-.2-1.67-.23-2.29.06-.1.33-.3.42-.41a5.62,5.62,0,0,1,1.06-.68,2,2,0,0,1,.34-.13,3,3,0,0,1,1-.07,1.12,1.12,0,0,1,.62.33s0,.05,0,.05a2.37,2.37,0,0,1,.5,1.11.74.74,0,0,0,0,.17,1.63,1.63,0,0,1-.28.71c-.09.05-.26.22-.39.24A16.8,16.8,0,0,1,97.29,149.26ZM97.21,147c-.11.06-.43.05-.44.18a.14.14,0,0,0,0,.13,3.7,3.7,0,0,1,.15.79c.07.51.15.65.4.49,0-.05.81-.14.83-.18s.18,0,.24-.25a.92.92,0,0,0-.16-.88.64.64,0,0,0-.56-.28C97.46,147,97.41,146.94,97.21,147Z"/><path d="M101.85,150.06a1.36,1.36,0,0,1-.68.33c-.37.12-.44.13-.53.06a.3.3,0,0,1-.1-.19c0-.61-.26-1.57-.25-2.27,0-.35,0-.75,0-.9a1.05,1.05,0,0,1,0-.35,2.81,2.81,0,0,1,.73-.57.18.18,0,0,1,.2,0c.09.12.4-.11.5-.11s.76-.28,1-.34a3.9,3.9,0,0,1,1.06-.07.91.91,0,0,1,.83.58,1,1,0,0,1,.11.32s0,.06,0,.05,0,.08,0,.17c0,.25-.08.7-.14.7s-.51.45-.55.45a1,1,0,0,0-.23.11.94.94,0,0,0,.35.2c.18,0,.09.09.26.16a3.14,3.14,0,0,1,1,.72c.25.37.19.46-.32.58a1.84,1.84,0,0,0-.39.12c-.1.07-.29,0-.52-.26a2,2,0,0,0-.45-.32c-.15-.11-.12,0-.27-.14a4.75,4.75,0,0,0-.76-.34.57.57,0,0,1-.3-.27c-.27,0-.53.09-.77.14C101.66,149.24,101.78,149.35,101.85,150.06Zm.19-3.53c0,.05-.23-.05-.23,0s-.38.16-.4.2a5.43,5.43,0,0,1,0,1.19.11.11,0,0,0,0,.1c0,.07.07.06.13,0a3.76,3.76,0,0,1,1.14-.31,1.11,1.11,0,0,0,.51-.17c.15-.1.17-.13.21-.36s0-.51-.23-.65l-.2-.1A3.84,3.84,0,0,0,102,146.53Z"/><path d="M108,39.8a8,8,0,0,0,6.35-2.53,10,10,0,0,0,2.14-3.86c.58-1.74.76-6.12,2.78-6.81,1.67-.58,1.29-1.77-.41-1.19A5.87,5.87,0,0,0,115,28.79c-1.05,2.52-1.27,9.67-5.35,9.49-.79,0-3.28,1.46-1.73,1.52Z"/><path d="M124.42,27c3.68-.89,3.32,5,3.28,6.94s-.3,4.07.81,5.78A6.08,6.08,0,0,0,135,42.11c1.16-.3-1.24-1.91-2.07-1.7-3.39.88-2.4-4.85-2.38-6.56a10.19,10.19,0,0,0-1.19-5.59,6.63,6.63,0,0,0-7-3c-1.15.28,1.24,1.9,2.08,1.7Z"/><path d="M120.67,25.33c-.59-.55-2-1.69-1.16-2.51l-1,.49a5.16,5.16,0,0,1,2.18,0c.76,0,1.51,0,2.28-.06a1.72,1.72,0,0,1,1.44.34c.57.65,0,1.34-.64,1.67l1.06-.52-.34.13c-.37.14-.71.39-1.08.53a7.33,7.33,0,0,0,1.74-.83c.76-.56.75-1.54-.25-1.82a10.78,10.78,0,0,0-2.66.05c-1.3,0-2.27-.25-3.41.38-1.38.76-.06,1.92.77,2.7.11.1,1-.62,1.08-.52Z"/><path d="M121.46,22.55c-.67-.29-1.6-1.28-.93-2l-.26.13.21-.1-.81.39a7,7,0,0,1,3.76-.1c1.24.5.74,1.78-.14,2.35.33-.22.75-.31,1.08-.52.88-.57,1.39-1.85.14-2.35a6.69,6.69,0,0,0-3.76.09,4.93,4.93,0,0,0-1.22.59c-.82.66.16,1.74.85,2,.25.11.85-.62,1.08-.52Z"/><path d="M122.69,20.45a5.62,5.62,0,0,0,2-1,.92.92,0,0,0,0-1.45,4.14,4.14,0,0,0-1.91-.35,4.63,4.63,0,0,0-2.53.63c-1.36.7-.12,1.67.66,2.23.16.12.93-.63,1.08-.52-.62-.44-2.07-1.43-.84-2.14l-1.06.51a5.44,5.44,0,0,1,3,0c.38.09.74.23.84.66a1,1,0,0,1-.09.61c-.09.18-.52.43-.07.28-.38.12-.7.4-1.08.52Z"/><path d="M122.67,18a27.46,27.46,0,0,0,2.23-7.11l-1.12-.41L123.21,18c0,.39,1.1.69,1.12.42l.57-7.56c0-.37-1.08-.7-1.12-.41a28.25,28.25,0,0,1-2.23,7.11c-.13.3,1,.74,1.12.41Z"/><path d="M135.53,44.26,135,41.84c0-.16-.62-.26-.58-.08l.5,2.42c0,.16.61.26.57.08Z"/><path d="M130.66,41.84c.09.83-2.58.38-3,.36L124.43,42c-2-.12-4.08-.24-6.12-.38-3.86-.27-7.9-1-11.76-.59-.16,0-.56.07-.58.29l-.12,1.78c0,.22.53.19.62.19a177,177,0,0,1,26.25,1c.37,0,1.34-.39.57-.47a181.23,181.23,0,0,0-26.86-1l.62.18.12-1.78-.58.3a44.5,44.5,0,0,1,7.65.33c2.53.19,5.05.36,7.58.51s5.06.33,7.59.42c.77,0,2.58.19,2.45-1.06,0-.34-1.23-.23-1.2.11Z"/><path d="M41.56,89.17a23.81,23.81,0,0,0-2.12-1.09c-2.23-.88-4.46-1.75-6.72-2.55-2.5-.89-5-1.71-7.56-2.54-.58-.2-1.19-.33-1.78-.48l-.35,1c.53.28,1.15.64,1.79.94a31.8,31.8,0,0,0,4.55,1.58q4.05,1.22,8.09,2.49c.66.21,1.28.54,1.93.8A2.08,2.08,0,0,0,41.56,89.17Z"/><path d="M41.9,87.68a1.22,1.22,0,0,0-.44-1.28A7.7,7.7,0,0,0,40,85.6c-1.51-.66-3-1.28-4.55-1.94-1.78-.76-3.56-1.56-5.34-2.32-1.27-.55-2.56-1.08-3.84-1.61-.58-.24-1.17-.45-1.79-.68l-.37,1.4C30,82.89,35.9,85.39,41.9,87.68Z"/><path d="M44.75,94.85l1.18-3.35c.34-.93.66-1.86,1-2.77a.91.91,0,0,0-.06-.79c-.22-.56-.22-.56-.81-.4a19.63,19.63,0,0,1-1.23,3.55,8,8,0,0,0-.73,2.35A1.39,1.39,0,0,0,44.75,94.85Z"/><path d="M44.49,87.32a10.49,10.49,0,0,1-.89,2.52,5.14,5.14,0,0,0-.35,1.4c0,.33.12.43.41.26a2.26,2.26,0,0,0,.75-.69,5.78,5.78,0,0,0,.87-3,1.63,1.63,0,0,0-.05-.54A.44.44,0,0,0,45,87,.42.42,0,0,0,44.49,87.32Z"/><path d="M42.06,90.81c.86-.71,1.94-3.4,1.4-4.4a.8.8,0,0,0-.66.45A13.39,13.39,0,0,0,42,88.59a6.54,6.54,0,0,0-.27,1.53A.68.68,0,0,0,42.06,90.81Z"/><path d="M49.8,92.25a.91.91,0,0,0-.68-.84c-.78-.3-1.58-.54-2.34-.79l-.55.84A8.92,8.92,0,0,0,49.8,92.25Z"/><path d="M47.35,89.1a.69.69,0,0,0,.07,1,3.59,3.59,0,0,0,.84.52,4.76,4.76,0,0,0,1.88.34.74.74,0,0,0-.36-.69,13.07,13.07,0,0,0-1.18-.6Z"/><g id="CZ5NFl"><path d="M55.28,96.61c-.06.44-.09.88-.17,1.31a8.77,8.77,0,0,1-2.29,4.69,13.78,13.78,0,0,1-3.75,2.67.31.31,0,0,0-.2.37,2,2,0,0,1-.37,1.48.59.59,0,0,1-.54.27H39.48c-.59,0-.7-.07-.86-.64-.11-.41-.17-.83-.3-1.23a.88.88,0,0,0-.33-.43c-.73-.52-1.5-1-2.2-1.52a8.4,8.4,0,0,1-3.38-7C35.78,96.21,53,96.21,55.28,96.61ZM41,104.13c-.88-.65-1.87-1.87-2.82-2.54-.48-.34-1.31,0-1.93,0A5.64,5.64,0,0,0,41,104.13Zm-6-5c1-.54.27-1.62-.82-1.62C33.85,98.3,34.34,99.22,35,99.15Zm2,.83c0-.12-.23-.28-.32-.26s-1.53.11-1.61.43.18.4.42.4S37,100.18,37,100Z"/></g><path d="M150.55,138c-.06-1-.22-2-.33-3a33.7,33.7,0,0,1-.34-3.87c0-1.81.24-3.63.37-5.44a3,3,0,0,1,.09-1.1,4.9,4.9,0,0,0,.2-2.93,1.84,1.84,0,0,0-.24-.46,1.69,1.69,0,0,0-.12.48,3.38,3.38,0,0,1-1.36,3.07l-.38-.77-.17,0c0,.17,0,.33-.05.5,0,.34,0,.68,0,1,0,.83,0,1.66-.05,2.49,0,1,0,2.05-.06,3.07,0,1.22-.13,2.43-.13,3.64,0,1,.11,2,.17,2.94a4.28,4.28,0,0,0,.61,2.56c.08.1-.06.46-.19.62a1,1,0,0,1-.56.24c-1,.21-1.78.09-1.82-1.17s-.07-2.43-.11-3.65S146,134.08,146,133a3.77,3.77,0,0,0-.18-1.26,20.4,20.4,0,0,0-1-1.92c-.21-.39-.38-.89-.71-1.08a3.93,3.93,0,0,1-1.09-.93c-.43-.56-.84-1.14-1.25-1.72-.16-.23-.27-.5-.44-.72s-.22-.1-.34-.15c0,.1-.09.23-.05.3a4,4,0,0,1,.27,3c-.24.88-.6,1.73-.9,2.59-.12.37-.21.74-.63.92a6,6,0,0,0-.64.38,15.93,15.93,0,0,1-6.3,2.1c-1.39.21-2.81.2-4.22.27-.32,0-.65,0-1.11,0l.6-.61-.06-.1a1.7,1.7,0,0,0-.34.12,13.35,13.35,0,0,1-3.23,1.91c-.92.36-1.85.68-2.77,1a1.34,1.34,0,0,0-.5.27c-.51.54-1,1.1-1.48,1.65a14,14,0,0,0-2,2.84,2.49,2.49,0,0,0-.42,2.19.44.44,0,0,1-.2.36c-.57.06-1.15.09-1.72.1-.07,0-.22-.19-.2-.26a17.85,17.85,0,0,1,.6-1.88,10.48,10.48,0,0,1,.69-1.14c.34-.59.67-1.2,1-1.79a3.65,3.65,0,0,0,.85-1.78.56.56,0,0,1,.16-.4.86.86,0,0,0,.25-.85,1.64,1.64,0,0,1,0-.44,8.43,8.43,0,0,1,2.11-4.13,1.18,1.18,0,0,0,.3-.74,25.41,25.41,0,0,1,.29-2.78,13.31,13.31,0,0,1,1.35-3.79,10.5,10.5,0,0,1,2-2.55,8.76,8.76,0,0,1,3.52-2.1,21.64,21.64,0,0,1,3.68-.65,31.28,31.28,0,0,0,4.21-.24,3.9,3.9,0,0,0,1.89-.8.63.63,0,0,1,.28-.16l.06,0a4.18,4.18,0,0,1,.91-.48c.38-.63.21-1-.5-1.11a1.29,1.29,0,0,1-.65.13c0,.16-.19.31-.48.59-.11.11-.22.2-.32.32a2.58,2.58,0,0,1-2,.93c-.94,0-1.87,0-2.81,0a14.76,14.76,0,0,0-5.61,1.06,10.18,10.18,0,0,0-3.93,2.71,20,20,0,0,0-1.3,1.73,1.37,1.37,0,0,1-.25.23A9.75,9.75,0,0,0,119,126.6a7.11,7.11,0,0,0-1.22,3.48,12.53,12.53,0,0,0,.13,2.74,1.48,1.48,0,0,1-.16,1.21,3.58,3.58,0,0,0-.51,1.68,4,4,0,0,1-.39,1.39c-.21.43-.51.8-.39,1.32a.41.41,0,0,1,0,.26c-.58,1-1.17,2-1.74,3s-1,1.87-1.51,2.8a.52.52,0,0,0,0,.18c-.08.63.21,1,1,1a9.49,9.49,0,0,0,4.12-.57.68.68,0,0,0,.12-1.14c-.33-.23-.29-.52-.17-.83a15.44,15.44,0,0,1,2.09-3.77c.34-.45.76-.84,1.14-1.26l.17.11a1.26,1.26,0,0,1-.16.33c-.31.38-.67.72-1,1.12a10.56,10.56,0,0,0-1.74,3.32,3.65,3.65,0,0,0,.39,1.4.34.34,0,0,0,.17.05c.74-.07,1.48-.11,2.2-.24.44-.08.55-.43.27-.75a1.78,1.78,0,0,1-.31-1.9,11.19,11.19,0,0,1,.65-1.46,5.44,5.44,0,0,1,2.65-2.82,6.51,6.51,0,0,0,1.6-1,1.63,1.63,0,0,1,1.14-.35c1.07,0,2.15.07,3.21,0a20.89,20.89,0,0,0,5.57-1.18,19.23,19.23,0,0,0,4.31-2.07c.88-.6,1.69-1.3,2.52-2,.26-.21.6-.2.69.12a10.1,10.1,0,0,1,.65,2.44c.08,1.59.29,3.17.41,4.76a3.55,3.55,0,0,1-.08,1.13c-.16.61-.4,1.21-.59,1.81a1.86,1.86,0,0,0-.11.57c0,.38.08.74.5.83a3.85,3.85,0,0,0,1.17.11,15.8,15.8,0,0,0,4.52-.71.44.44,0,0,0,.24-.73c0-.07-.09-.14-.18-.3a3.54,3.54,0,0,0,.73-.13,1.3,1.3,0,0,0,.57-.36c.05-.06-.13-.35-.25-.49A3.09,3.09,0,0,1,150.55,138Zm-31.86-8.35a12.31,12.31,0,0,1,.64-1.82,4.7,4.7,0,0,1,.46-.78s.18-.06.18-.06a.6.6,0,0,1,.09.32c-.07.32-.19.62-.27.93a10.91,10.91,0,0,0-.51,2.14,4.21,4.21,0,0,1-.49,1.76,1.57,1.57,0,0,1-.25.27l-.24-.3C118.43,131.28,118.5,130.45,118.69,129.65Z"/><path d="M153.73,117.78s0,0,0,0c-1.06-1.14-2.11-2.28-3.17-3.41a2.26,2.26,0,0,0-.49-.31c.42.66.89,1.23,1.33,1.83s.92,1.38,1.38,2.06a.44.44,0,0,1-.14.69,7.69,7.69,0,0,1-1.59.87,5.36,5.36,0,0,1-1.7.21c-1.74,0-3.5,0-5.24-.14a21.42,21.42,0,0,1-2.63-.4.93.93,0,0,1-.57-.3,25.81,25.81,0,0,1-1.48-2.67,1.63,1.63,0,0,1-.13-1.57,11.13,11.13,0,0,1,1.71-2.77c.71-.72,1.37-1.48,2-2.22l.4-.45c-.12-.06-.18-.06-.22,0-1,.78-2,1.53-2.88,2.36a9.5,9.5,0,0,0-1.29,1.53,22.76,22.76,0,0,0-1.24,2,.86.86,0,0,0,0,.65c.2.45.83,2.58.84,2.59.24.49.49,1,.72,1.47a1.26,1.26,0,0,0,.86.71,15.89,15.89,0,0,0,4.86.38c1.57,0,3.15-.08,4.72-.14a4,4,0,0,0,1.53-.2,13.12,13.12,0,0,0,2.27-1.43C154.32,118.52,154.29,118.47,153.73,117.78Z"/><path d="M145,109.68a1.29,1.29,0,0,1,0-1.84c.6-.56,1.24-1.08,1.88-1.6a13.91,13.91,0,0,1,1.54-1.14,3.52,3.52,0,0,1,1.41-.53,2.85,2.85,0,0,0,1.43-.62,9,9,0,0,0,1.27-.9,7.54,7.54,0,0,0,1.31-1.57,21.33,21.33,0,0,0,1.37-2.85,14.54,14.54,0,0,0,.8-2.58,20,20,0,0,0,.47-3.35,32.16,32.16,0,0,0-.23-3.38,12.91,12.91,0,0,0-1-3.57c-.08-.23-.38-.39-.57-.6a2.53,2.53,0,0,1-.18-.27,1.47,1.47,0,0,1,.34-.15c.16,0,.33,0,.48,0a8.6,8.6,0,0,0,.84-.33c.1,0,.23-.14.3-.11s.11.19.15.3A7.7,7.7,0,0,0,157,86a16.31,16.31,0,0,1,1.43,4.33,21.7,21.7,0,0,1,.44,2.64c.08,1.16.05,2.33.06,3.5a27.14,27.14,0,0,1-.53,4.93c-.13.74-.37,1.46-.57,2.25a14.46,14.46,0,0,0,6.8-4.3l.14.08c-.16.35-.3.72-.48,1.06a8.67,8.67,0,0,1-1.81,2.28,16.19,16.19,0,0,1-2.79,2.08,11.51,11.51,0,0,0,4.32-2.2l.1.1a1.86,1.86,0,0,1-.17.41,7.54,7.54,0,0,1-4.53,3.21c-.72.2-1.42.46-2.12.68-.45.14-.9.26-1.35.41s-.62.19-.73.62-.13.51.38.57a6.4,6.4,0,0,1,2.55,1.19,8.62,8.62,0,0,0-1.27.18,8.1,8.1,0,0,0-1.12.52c0,.59,0,1.17,0,1.74a1,1,0,0,1-.52,1c-.54.29-1,.68-1.57,1a9.58,9.58,0,0,1-.92.42c-.2.09-.75-.11-.79-.32a.44.44,0,0,1,.15-.31c.66-.45,1.33-.87,2-1.34a1.57,1.57,0,0,0,.62-1.27c0-.36.09-.71.12-1.07.07-.77.07-.77-.7-.94.14-.39.28-.77.41-1.15s.28-.9.42-1.34c0-.12.1-.28.2-.33.48-.24,1-.43,1.47-.66.28-.13.54-.3.81-.44.85-.43,1.71-.83,2.54-1.29a13,13,0,0,0,1.37-1c.05,0,.06-.15.08-.22s-.23-.12-.31-.09-.42.27-.65.37c-.83.37-1.67.74-2.51,1.08-.65.26-1.31.49-2,.71a1.46,1.46,0,0,1-.37,0c0-.13,0-.28,0-.37a4.87,4.87,0,0,1,.53-.59c.2-.19.41-.31.43-.69a8,8,0,0,1,.42-1.25c.34-1.27.65-2.55,1-3.83a17.81,17.81,0,0,0,.35-5,16.4,16.4,0,0,0-.71-4.44c-.14-.42-.2-.87-.35-1.28-.24-.68-.52-1.35-.82-2-.06-.15-.28-.23-.42-.34-.06.18-.21.39-.17.54.24.92.55,1.82.76,2.74a19.27,19.27,0,0,1,.3,2,1.64,1.64,0,0,0,0,.22,14.55,14.55,0,0,1,0,3.73,18.47,18.47,0,0,1-.74,3.81,20.37,20.37,0,0,1-1.36,3.31,8.88,8.88,0,0,1-2.12,2.55,4.23,4.23,0,0,1-2.63,1,3.66,3.66,0,0,0-2,.87,13.91,13.91,0,0,0-2.59,2.72C145.28,109.08,145.14,109.37,145,109.68Z"/><path d="M150,107.5l-.5-.29.27-.35.08,0,.61-.13s.09.21.06.26S150.24,107.29,150,107.5Z"/></g></g></svg>